<?xml version="1.0" encoding="UTF-8"?>
<svg width="33px" height="26px" viewBox="0 0 33 26" version="1.1" xmlns="http://www.w3.org/2000/svg" xmlns:xlink="http://www.w3.org/1999/xlink">
    <!-- Generator: Sketch 60.1 (88133) - https://sketch.com -->
    <title>WWS cash management svg Copy</title>
    <desc>Created with Sketch.</desc>
    <defs>
        <polygon id="path-1" points="0.179819276 0.0460459986 6.05736009 0.0460459986 6.05736009 5.91896392 0.179819276 5.91896392"></polygon>
    </defs>
    <g id="04_08_BE-colors" stroke="none" stroke-width="1" fill="none" fill-rule="evenodd">
        <g id="Artboard" transform="translate(-908.000000, -710.000000)">
            <g id="Group-2" transform="translate(878.000000, 269.000000)">
                <g id="WWS-cash-management-svg-Copy" transform="translate(30.000000, 441.000000)">
                    <path d="M24.872192,19.089124 C25.2533,18.718026 25.62458,18.420092 25.917236,18.058458 C26.530394,17.3009741 26.784466,16.4051701 26.784648,15.4362021 C26.785558,10.5762563 26.785012,5.71612842 26.785012,0.856000574 L26.785012,0.273054592 C27.20161,0.173318595 32.2706738,0.149294595 32.9666418,0.240112593 C32.9739218,0.374064588 32.9881178,0.514750584 32.9882998,0.65543658 C32.9893918,5.58800043 32.9832038,10.5205643 32.9923478,15.4531281 C32.9955798,17.2041501 32.6354018,18.858348 31.8052998,20.406622 C30.9113158,22.0739239 29.6576999,23.3966999 28.0391739,24.3756778 C27.168122,24.9023858 26.240468,25.2884078 25.17595,25.5410238 C25.43075,25.1837578 25.403268,24.8250358 25.403086,24.4694078 C25.401812,23.1637399 25.38616,21.8577079 25.410002,20.552586 C25.420558,19.976738 25.297162,19.479332 24.872192,19.089124" id="Fill-6" fill="#FFFFFF" fill-rule="nonzero"></path>
                    <path d="M21.5856179,25.446766 C20.878184,25.446766 20.170386,25.457322 19.463316,25.43985 C19.273854,25.4353 19.064918,25.382338 18.90312,25.286788 C18.660878,25.143918 18.64013,24.876924 18.640858,24.613388 C18.644316,23.4161921 18.58644,22.2153561 18.663244,21.0230742 C18.707652,20.3340222 18.311074,19.9984142 17.89393,19.6362342 C17.7920101,19.5476002 17.5879881,19.5563362 17.4305581,19.5554262 C16.3059801,19.5492382 15.1812201,19.5519682 14.0564602,19.5519682 C13.9838422,19.5519682 13.9106782,19.5454162 13.8389702,19.5530602 C13.0412642,19.6384182 12.7420562,19.1654002 12.7620762,18.4934562 C12.8001142,17.2247343 12.7720862,15.9541923 12.7742702,14.6843783 C12.7746342,14.5402344 12.7704482,14.3900844 12.8072122,14.2532204 C12.8971202,13.9176124 13.1661162,13.7063104 13.5233822,13.7046724 C14.9926681,13.6983024 16.4621361,13.6959364 17.931422,13.7054004 C18.41718,13.7084944 18.627936,13.9432744 18.631576,14.4721664 C18.64013,15.7417983 18.670342,17.0132503 18.618654,18.2808802 C18.596268,18.8345242 18.851068,19.1572102 19.21161,19.4780762 C19.369404,19.6183982 19.550676,19.5832722 19.727398,19.5838182 C20.979012,19.5865482 22.2308079,19.5849102 23.4824219,19.5854562 C23.6274759,19.5856382 23.7741679,19.5779942 23.9172199,19.5961942 C24.2546479,19.6389642 24.4659498,19.8628242 24.5045338,20.2009802 C24.5105398,20.2548522 24.5129058,20.3094522 24.5129058,20.3638702 C24.5134518,21.7969381 24.5198218,23.2300061 24.5103578,24.663074 C24.5067178,25.23146 24.2890459,25.436574 23.7079199,25.4444 C23.0004859,25.453864 22.2930519,25.446766 21.5856179,25.446766" id="Fill-8" fill="#FFFFFF" fill-rule="nonzero"></path>
                    <path d="M3.3250125,13.7008504 C4.01406448,13.7008504 4.70457246,13.7279684 5.39180443,13.6921144 C5.92542842,13.6642684 6.25266441,13.9782184 6.23937841,14.5537024 C6.20971241,15.8222423 6.26613241,17.0935123 6.21408041,18.3607782 C6.19042041,18.9346242 6.5156544,19.2247322 6.87546839,19.5188442 C6.98030039,19.6047482 7.18505038,19.5850922 7.34430037,19.5856382 C8.57735034,19.5903702 9.8104003,19.5881862 11.0436323,19.5883682 C11.1704863,19.5883682 11.2980683,19.5818162 11.4241942,19.5918262 C11.8258682,19.6236762 12.0490002,19.8420762 12.0952282,20.2397462 C12.0972302,20.2577642 12.0986862,20.2757822 12.0986862,20.2939822 C12.0986862,21.7809221 12.1046922,23.2678621 12.0941362,24.75462 C12.0912242,25.178134 11.8455242,25.41346 11.4101802,25.432934 C10.9939463,25.45168 10.5762563,25.439122 10.1592943,25.439122 C9.14373432,25.439486 8.12835635,25.442944 7.11279638,25.437666 C6.5302144,25.434572 6.24720441,25.160116 6.24356441,24.578262 C6.23555641,23.3452121 6.22736641,22.1119801 6.24920641,20.8792942 C6.25594041,20.5021902 6.16712441,20.2089882 5.86245642,19.9869482 C5.83351842,19.9656542 5.80731042,19.9387182 5.78565242,19.9101442 C5.57180243,19.6287722 5.29953044,19.5368622 4.93953445,19.5434142 C3.70684849,19.5659822 2.47343452,19.5567002 1.24038456,19.5499662 C0.66144258,19.5466902 0.372608589,19.2613142 0.369150589,18.6800062 C0.361324589,17.3020843 0.365692589,15.9237983 0.368786589,14.5456944 C0.368968589,14.4390424 0.380980588,14.3271124 0.414468587,14.2264664 C0.528582584,13.8837604 0.768276576,13.7077664 1.14902056,13.7037624 C1.87429054,13.6961184 2.59974252,13.7013964 3.3250125,13.7013964 L3.3250125,13.7008504 Z" id="Fill-10" fill="#FFFFFF" fill-rule="nonzero"></path>
                    <path d="M3.3271419,6.94622999 C4.03348388,6.94604799 4.74091785,6.96934399 5.44580383,6.93767599 C5.90371582,6.91710999 6.24769581,7.23069598 6.23877781,7.74211596 C6.21347981,9.15443592 6.23459181,10.5673019 6.22785781,11.9799858 C6.22494581,12.5714858 5.99835582,12.7962558 5.40303383,12.7991678 C4.02656788,12.8059018 2.65010192,12.8051738 1.27363596,12.7995318 C0.65993198,12.7968018 0.371825989,12.5143378 0.368731989,11.9062758 C0.361815989,10.5480099 0.366547989,9.18974392 0.366729989,7.83129596 C0.366729989,7.77705996 0.360723989,7.72154996 0.369641989,7.66858796 C0.445535986,7.21722798 0.680133979,6.93148799 1.15387996,6.94222599 C1.87805794,6.95842399 2.60278192,6.94641199 3.3271419,6.94622999" id="Fill-12" fill="#FFFFFF" fill-rule="nonzero"></path>
                    <path d="M15.7985823,6.94613899 C16.4867243,6.94613899 17.1755943,6.96852499 17.8624623,6.93831299 C18.3172802,6.91829299 18.6477922,7.25135298 18.6416042,7.70089296 C18.6217662,9.13104892 18.6405122,10.5617509 18.6315942,11.9920888 C18.6281362,12.5490088 18.3979062,12.7903408 17.8355263,12.7961648 C16.4233883,12.8103608 15.0108863,12.8078128 13.5987484,12.7976208 C13.0625764,12.7937988 12.7842984,12.4913148 12.7750164,11.9367608 C12.7662804,11.4118728 12.7730144,10.8866209 12.7730144,10.3615509 C12.7730144,9.5829549 12.7730144,8.80435893 12.7730144,8.02576295 C12.7730144,7.91710896 12.7653704,7.80772696 12.7755624,7.69998296 C12.8297984,7.12686498 13.1213624,6.93776699 13.5716304,6.94340899 C14.3138264,6.95305499 15.0562043,6.94613899 15.7985823,6.94613899" id="Fill-14" fill="#FFFFFF" fill-rule="nonzero"></path>
                    <path d="M18.6349612,3.1118723 C18.6349612,3.79965028 18.6406032,4.48761026 18.6331412,5.17520624 C18.6265892,5.78672622 18.3881692,6.04098021 17.7808353,6.04589421 C16.4234793,6.05681421 15.0659413,6.05699621 13.7085854,6.04607621 C13.0317274,6.04061621 12.7754714,5.76106422 12.7738334,5.06982824 C12.7711034,3.74850828 12.7731054,2.42718833 12.7731054,1.10605037 C12.7731054,1.01541437 12.7669174,0.924050372 12.7772914,0.834688374 C12.8204254,0.467412386 13.0391894,0.245554392 13.4055554,0.200418394 C13.5127534,0.187132394 13.6223174,0.191318394 13.7309714,0.191318394 C15.0703093,0.190772394 16.4094653,0.190954394 17.7489853,0.191136394 C17.8212393,0.191136394 17.8940392,0.189316394 17.9661112,0.194412394 C18.3974512,0.225170393 18.6216752,0.441568386 18.6295012,0.885830373 C18.6427872,1.62766235 18.6331412,2.36985833 18.6331412,3.1118723 L18.6349612,3.1118723 Z" id="Fill-16" fill="#FFFFFF" fill-rule="nonzero"></path>
                    <g id="Group-20" transform="translate(0.182000, 0.135954)">
                        <mask id="mask-2" fill="white">
                            <use xlink:href="#path-1"></use>
                        </mask>
                        <g id="path-3"></g>
                        <path d="M3.1651437,0.0551277983 C3.85437768,0.0551277983 4.54470366,0.0791517976 5.23229964,0.0473017985 C5.74735962,0.0232777993 6.06731561,0.345053789 6.05712361,0.875765773 C6.03055161,2.27170573 6.05257361,3.66855569 6.04583961,5.06504164 C6.04310961,5.64416563 5.80050362,5.90351562 5.22101564,5.90897562 C3.84291168,5.92207962 2.46444372,5.92244362 1.08633977,5.90915762 C0.466083786,5.90296962 0.193629794,5.62378163 0.188351794,4.99770165 C0.176521795,3.63761569 0.177613795,2.27716573 0.187805794,0.917079772 C0.192537794,0.288633791 0.424951787,0.063863798 1.04338777,0.0569477982 C1.75063975,0.0491217985 2.45789172,0.0551277983 3.1651437,0.0551277983" id="Fill-18" fill="#FFFFFF" fill-rule="nonzero" mask="url(#mask-2)"></path>
                    </g>
                    <path d="M1.76833015,22.1296341 C1.76814815,21.6764541 1.76068615,21.2232741 1.77033215,20.7702762 C1.77888615,20.3727882 1.90046214,20.2421122 2.28957813,20.2381082 C3.2139561,20.2291902 4.13851607,20.2288262 5.06289404,20.2388362 C5.41360803,20.2424762 5.55265603,20.3844362 5.55647803,20.7417022 C5.56648803,21.6658981 5.56648803,22.5904581 5.55666003,23.5148361 C5.55283803,23.8731941 5.41470003,24.0162461 5.06416804,24.0198861 C4.12177207,24.0298961 3.1790121,24.0300781 2.23661613,24.0184301 C1.91484014,24.0144261 1.78088815,23.8706461 1.77197015,23.5434101 C1.75904815,23.0723941 1.76869415,22.6008321 1.76833015,22.1296341" id="Fill-21" fill="#FFFFFF" fill-rule="nonzero"></path>
                    <path d="M16.0156901,24.0238355 C15.5805281,24.0238355 15.1453661,24.0314795 14.7105681,24.0216515 C14.3094402,24.0123695 14.1773082,23.8929775 14.1729402,23.5058635 C14.1629302,22.5814855 14.1629302,21.6569255 14.1734862,20.7325476 C14.1774902,20.3798316 14.3194502,20.2420576 14.6756241,20.2384176 C15.6000021,20.2291356 16.5245621,20.2294996 17.4489401,20.2384176 C17.8103921,20.2418756 17.954354,20.3771016 17.957994,20.7249036 C17.968004,21.6672995 17.968004,22.6100595 17.957084,23.5526375 C17.953444,23.8740495 17.8107561,24.0103675 17.4838841,24.0194675 C16.9948501,24.0331175 16.5050881,24.0231075 16.0156901,24.0231075 L16.0156901,24.0238355 Z" id="Fill-23" fill="#FFFFFF" fill-rule="nonzero"></path>
                </g>
            </g>
        </g>
    </g>
</svg>